<svg xmlns="http://www.w3.org/2000/svg" version="1.1" width="100" height="100" viewBox="0 0 100 100"><defs/><path fill="#000000" stroke="#000000" d="M 28.3749,85 L 28.3749,71.6251" style="stroke-width: 1px;stroke-opacity: 1;fill-opacity: 0" stroke-width="1" stroke-opacity="1" stroke-dasharray="0" fill-opacity="0"/><path fill="#000000" stroke="#000000" d="M 15,71.6251 L 28.3749,71.6251" style="stroke-width: 1px;stroke-opacity: 1;fill-opacity: 0" stroke-width="1" stroke-opacity="1" stroke-dasharray="0" fill-opacity="0"/><path fill="#000000" stroke="#000000" d="M 15,28.3749 L 28.3749,28.3749" style="stroke-width: 1px;stroke-opacity: 1;fill-opacity: 0" stroke-width="1" stroke-opacity="1" stroke-dasharray="0" fill-opacity="0"/><path fill="#000000" stroke="#000000" d="M 28.3749,15 L 28.3749,28.3749" style="stroke-width: 1px;stroke-opacity: 1;fill-opacity: 0" stroke-width="1" stroke-opacity="1" stroke-dasharray="0" fill-opacity="0"/><path fill="#000000" stroke="#000000" d="M 71.6251,15 L 71.6251,28.3749" style="stroke-width: 1px;stroke-opacity: 1;fill-opacity: 0" stroke-width="1" stroke-opacity="1" stroke-dasharray="0" fill-opacity="0"/><path fill="#000000" stroke="#000000" d="M 85,28.3749 L 71.6251,28.3749" style="stroke-width: 1px;stroke-opacity: 1;fill-opacity: 0" stroke-width="1" stroke-opacity="1" stroke-dasharray="0" fill-opacity="0"/><path fill="#000000" stroke="#000000" d="M 85,71.6251 L 71.6251,71.6251" style="stroke-width: 1px;stroke-opacity: 1;fill-opacity: 0" stroke-width="1" stroke-opacity="1" stroke-dasharray="0" fill-opacity="0"/><path fill="#000000" stroke="#000000" d="M 71.6251,85 L 71.6251,71.6251" style="stroke-width: 1px;stroke-opacity: 1;fill-opacity: 0" stroke-width="1" stroke-opacity="1" stroke-dasharray="0" fill-opacity="0"/><path fill="#000000" stroke="#000000" d="M 10.5,56.65 C 10.85,54.55 14.7,51.4 15.75,51.05 C 14.7,50.7 10.85,47.55 10.5,45.45" transform="rotate(-90 15.75 51.05)" style="stroke-width: 2px;stroke-opacity: 1;fill-opacity: 0;stroke-linejoin: round;stroke-linecap: round" stroke-width="2" stroke-opacity="1" stroke-dasharray="0" fill-opacity="0" stroke-linejoin="round" stroke-linecap="round"/><path fill="#000000" stroke="#000000" d="M 15,85 S 15,85 15,51.05" style="stroke-width: 2px;stroke-opacity: 1;fill-opacity: 0" stroke-width="2" stroke-opacity="1" stroke-dasharray="0" fill-opacity="0"/><path fill="#000000" stroke="#000000" d="M 44.45,20.6 C 44.8,18.5 48.65,15.35 49.7,15 C 48.65,14.65 44.8,11.5 44.45,9.4" transform="" style="stroke-width: 2px;stroke-opacity: 1;fill-opacity: 0;stroke-linejoin: round;stroke-linecap: round" stroke-width="2" stroke-opacity="1" stroke-dasharray="0" fill-opacity="0" stroke-linejoin="round" stroke-linecap="round"/><path fill="#000000" stroke="#000000" d="M 15,15 S 15,15 48.95,15" style="stroke-width: 2px;stroke-opacity: 1;fill-opacity: 0" stroke-width="2" stroke-opacity="1" stroke-dasharray="0" fill-opacity="0"/><path fill="#000000" stroke="#000000" d="M 49.45,20.6 C 49.8,18.5 53.65,15.35 54.7,15 C 53.65,14.65 49.8,11.5 49.45,9.4" transform="" style="stroke-width: 2px;stroke-opacity: 1;fill-opacity: 0;stroke-linejoin: round;stroke-linecap: round" stroke-width="2" stroke-opacity="1" stroke-dasharray="0" fill-opacity="0" stroke-linejoin="round" stroke-linecap="round"/><path fill="#000000" stroke="#000000" d="M 15,15 S 15,15 53.95,15" style="stroke-width: 2px;stroke-opacity: 1;fill-opacity: 0" stroke-width="2" stroke-opacity="1" stroke-dasharray="0" fill-opacity="0"/><path fill="#000000" stroke="#000000" d="M 80.5,56.65 C 80.85,54.55 84.7,51.4 85.75,51.05 C 84.7,50.7 80.85,47.55 80.5,45.45" transform="rotate(-90 85.75 51.05)" style="stroke-width: 2px;stroke-opacity: 1;fill-opacity: 0;stroke-linejoin: round;stroke-linecap: round" stroke-width="2" stroke-opacity="1" stroke-dasharray="0" fill-opacity="0" stroke-linejoin="round" stroke-linecap="round"/><path fill="#000000" stroke="#000000" d="M 85,85 S 85,85 85,51.05" style="stroke-width: 2px;stroke-opacity: 1;fill-opacity: 0" stroke-width="2" stroke-opacity="1" stroke-dasharray="0" fill-opacity="0"/><path fill="#000000" stroke="#000000" d="M 44.45,90.6 C 44.8,88.5 48.65,85.35 49.7,85 C 48.65,84.65 44.8,81.5 44.45,79.4" transform="" style="stroke-width: 2px;stroke-opacity: 1;fill-opacity: 0;stroke-linejoin: round;stroke-linecap: round" stroke-width="2" stroke-opacity="1" stroke-dasharray="0" fill-opacity="0" stroke-linejoin="round" stroke-linecap="round"/><path fill="#000000" stroke="#000000" d="M 15,85 S 15,85 48.95,85" style="stroke-width: 2px;stroke-opacity: 1;fill-opacity: 0" stroke-width="2" stroke-opacity="1" stroke-dasharray="0" fill-opacity="0"/><path fill="#000000" stroke="#000000" d="M 49.45,90.6 C 49.8,88.5 53.65,85.35 54.7,85 C 53.65,84.65 49.8,81.5 49.45,79.4" transform="" style="stroke-width: 2px;stroke-opacity: 1;fill-opacity: 0;stroke-linejoin: round;stroke-linecap: round" stroke-width="2" stroke-opacity="1" stroke-dasharray="0" fill-opacity="0" stroke-linejoin="round" stroke-linecap="round"/><path fill="#000000" stroke="#000000" d="M 15,85 S 15,85 53.95,85" style="stroke-width: 2px;stroke-opacity: 1;fill-opacity: 0" stroke-width="2" stroke-opacity="1" stroke-dasharray="0" fill-opacity="0"/><path fill="#000000" stroke="#000000" d="M 15,85 L 15,15 L 85,15 L 85,85 Z" style="stroke-width: 2px;fill-opacity: 0;stroke-opacity: 1" stroke-width="2" fill-opacity="0" stroke-opacity="1" stroke-dasharray="0"/></svg>